<svg width="603" height="535" viewBox="0 0 603 535" fill="none" xmlns="http://www.w3.org/2000/svg">
<path fill-rule="evenodd" clip-rule="evenodd" d="M446.071 0.706543L144.549 4.13084L0.42152 253.768L138.53 533.087L448.442 534.467L602.136 268.261L446.071 0.706543ZM513.75 402.482L588.532 272.955L469.002 272.423L393.293 403.555L513.75 402.482ZM508.274 411.966L443.009 525.008L323.479 524.476L387.817 413.039L508.274 411.966ZM376.866 413.136L312.612 524.427L149.616 523.702L212.607 414.599L376.866 413.136ZM204.461 409.839L141.788 518.391L68.914 371.005L127.786 269.035L204.461 409.839ZM133.315 259.459L209.99 400.263L286.994 266.888L209.461 129.006L208.624 129.02L133.315 259.459ZM122.499 259.324L63.8881 360.84L11.117 254.112L66.9756 157.362L122.499 259.324ZM72.5041 147.787L128.027 249.748L203.124 119.676L204.205 119.658L147.237 18.3459L72.5041 147.787ZM218.082 405.115L382.342 403.652L458.135 272.374L295.139 271.648L218.082 405.115ZM456.693 262.933L295.189 262.214L220.184 128.825L376.929 126.188L456.693 262.933ZM371.479 116.844L214.928 119.478L155.304 13.4441L310.14 11.6857L371.479 116.844ZM320.99 11.5624L382.295 116.662L501.615 114.655L440.688 10.2031L320.99 11.5624ZM507.065 123.999L387.746 126.007L467.644 262.982L588.448 263.52L507.065 123.999Z" fill="url(#paint0_linear_9_8880)"/>
<defs>
<linearGradient id="paint0_linear_9_8880" x1="136.475" y1="3.08678" x2="443.105" y2="550.303" gradientUnits="userSpaceOnUse">
<stop stop-color="white"/>
<stop offset="1" stop-color="#3C3C3C"/>
</linearGradient>
</defs>
</svg>
